<?xml version="1.0" encoding="utf-8"?>
<!-- Generator: Adobe Illustrator 24.3.0, SVG Export Plug-In . SVG Version: 6.00 Build 0)  -->
<svg version="1.1" id="Capa_1" xmlns="http://www.w3.org/2000/svg" xmlns:xlink="http://www.w3.org/1999/xlink" x="0px" y="0px"
	 viewBox="0 0 182 51" style="enable-background:new 0 0 182 51;" xml:space="preserve">
<style type="text/css">
	.st0{fill:#FFD300;}
	.st1{fill:#FFFFFF;}
	.st2{fill:#FFC902;}
	.st3{fill:#EA241D;}
	.st4{fill:#222F7D;}
	.st5{enable-background:new    ;}
	.st6{fill:#312520;}
</style>
<g transform="translate(-502 -249)">
	<g transform="matrix(1, 0, 0, 1, 502, 249)">
		<path class="st0" d="M25.5,4h131c10.8,0,19.5,8.7,19.5,19.5l0,0c0,10.8-8.7,19.5-19.5,19.5h-131C14.7,43,6,34.3,6,23.5l0,0
			C6,12.7,14.7,4,25.5,4z"/>
	</g>
	<circle class="st1" cx="527.5" cy="272.5" r="19.5"/>
	<g transform="translate(515.167 262.497)">
		<path class="st2" d="M18.9,4.6c1-0.1,2-0.1,3-0.1c0.4,0,0.8,0.1,1.1,0.3c0.3,0.3,0.4,0.7,0.5,1.2c0.2,0.7,0.5,1.3,0.8,2
			c0.1,0.2,0.1,0.5-0.1,0.7c-0.3,0.2-0.7,0.3-1.1,0.4c-1.3,0.2-2.7,0.4-4,0.7c-2.6,0.5-5.2,1.1-7.8,1.8C8.6,12.2,6,13,3.5,14
			c-0.5,0.2-1,0.4-1.5,0.5c-0.3,0.1-0.6,0-0.8-0.2c-0.2-0.3-0.4-0.6-0.4-1c-0.2-0.9-0.5-1.7-0.6-2.6C0,10.3,0,9.9,0.1,9.5
			c0.1-0.3,0.3-0.6,0.6-0.7C1.2,8.5,1.9,8.2,2.5,8C3.7,7.6,5,7.3,6.2,6.8c2.6-0.7,5.3-1.3,8-1.7C15.8,4.9,17.3,4.7,18.9,4.6z"/>
		<path class="st3" d="M21.8,10c0.4-0.1,0.8-0.1,1.1,0c0.3,0.2,0.5,0.5,0.6,0.9c0.3,0.8,0.6,1.7,0.8,2.5c0.1,0.4,0.2,0.8,0.2,1.2
			c-0.1,0.4-0.5,0.6-0.8,0.7c-1,0.4-2,0.7-2.9,1.1l-7.8,3c-0.6,0.2-1.1,0.4-1.7,0.6c-0.3,0.1-0.7,0-1-0.2c-0.3-0.3-0.5-0.6-0.6-1
			c-0.2-0.7-0.4-1.3-0.6-2c-0.3-0.7-0.6-1.5-0.9-2.3c-0.1-0.3-0.1-0.7,0.1-1c0.2-0.3,0.5-0.5,0.9-0.5c1.7-0.4,3.5-0.9,5.2-1.3
			c1.5-0.4,3-0.8,4.5-1C19.9,10.4,20.8,10.2,21.8,10z"/>
		<path class="st4" d="M17,0h0.5c0.6,0,1.2,0,1.8,0.1c0.4,0,0.7,0.1,1,0.3c0.3,0.4,0.6,0.8,0.8,1.3c0.2,0.4,0.4,0.9,0.6,1.4
			c0,0.1,0.1,0.3,0,0.4c-0.2,0.1-0.4,0.1-0.6,0.1c-4,0.1-7.9,0.5-11.8,1.4C8.1,5.3,6.8,5.6,5.6,6C5.3,6.1,4.8,6.1,4.5,6
			C4.2,5.7,4,5.4,3.9,5C3.7,4.4,3.5,3.8,3.3,3.1c-0.1-0.3-0.1-0.5,0-0.8c0.2-0.3,0.6-0.5,0.9-0.5c1.3-0.4,2.6-0.7,4-1
			c1.6-0.3,3.2-0.5,4.7-0.7C13.6,0.1,14.2,0,14.8,0C15.5,0,16.2,0,17,0z"/>
	</g>
</g>
<g class="st5">
	<path class="st6" d="M64.7,24.2c0.4,0.5,0.5,1.1,0.5,1.8c0,1-0.3,1.7-1,2.3S62.5,29,61.3,29h-4.1c-0.3,0-0.6-0.1-0.7-0.3
		s-0.3-0.4-0.3-0.7v-9.3c0-0.3,0.1-0.5,0.3-0.7c0.2-0.2,0.4-0.3,0.7-0.3h4c1.2,0,2.1,0.3,2.8,0.8c0.7,0.5,1,1.2,1,2.2
		c0,0.6-0.2,1.1-0.5,1.6s-0.7,0.8-1.3,1C63.8,23.4,64.3,23.7,64.7,24.2z M58.2,22.5h2.6c1.4,0,2.1-0.5,2.1-1.6
		c0-0.5-0.2-0.9-0.5-1.2s-0.9-0.4-1.6-0.4h-2.6V22.5z M62.7,27c0.3-0.3,0.5-0.7,0.5-1.2s-0.2-1-0.5-1.3s-0.9-0.4-1.6-0.4h-2.9v3.3
		h2.9C61.9,27.4,62.4,27.3,62.7,27z"/>
	<path class="st6" d="M73.4,21.8c0.5,0.5,0.8,1.4,0.8,2.5v3.9c0,0.3-0.1,0.5-0.3,0.7c-0.2,0.2-0.4,0.2-0.7,0.2
		c-0.3,0-0.5-0.1-0.7-0.3c-0.2-0.2-0.3-0.4-0.3-0.7v-0.4c-0.2,0.4-0.5,0.7-0.9,1c-0.4,0.2-0.8,0.4-1.4,0.4c-0.5,0-1-0.1-1.4-0.3
		c-0.4-0.2-0.8-0.5-1-0.9c-0.2-0.4-0.4-0.8-0.4-1.2c0-0.6,0.1-1,0.4-1.4c0.3-0.3,0.8-0.6,1.4-0.7c0.7-0.1,1.6-0.2,2.7-0.2h0.4V24
		c0-0.5-0.1-0.9-0.3-1.1c-0.2-0.2-0.6-0.4-1.1-0.4c-0.3,0-0.6,0-0.9,0.1c-0.3,0.1-0.7,0.2-1.1,0.4c-0.3,0.1-0.5,0.2-0.6,0.2
		c-0.2,0-0.3-0.1-0.5-0.2c-0.1-0.1-0.2-0.3-0.2-0.5c0-0.2,0-0.3,0.1-0.5c0.1-0.1,0.2-0.3,0.5-0.4c0.4-0.2,0.8-0.4,1.3-0.5
		C70,21,70.5,21,71,21C72.1,21,72.9,21.3,73.4,21.8z M71.8,27.2c0.3-0.4,0.5-0.8,0.5-1.4v-0.3H72c-0.7,0-1.3,0-1.7,0.1
		c-0.4,0.1-0.7,0.2-0.8,0.3s-0.3,0.4-0.3,0.7c0,0.3,0.1,0.6,0.4,0.8c0.2,0.2,0.5,0.3,0.9,0.3C71,27.7,71.5,27.5,71.8,27.2z"/>
	<path class="st6" d="M83.5,21.8c0.5,0.5,0.7,1.3,0.7,2.4v3.9c0,0.3-0.1,0.5-0.3,0.7c-0.2,0.2-0.4,0.3-0.7,0.3
		c-0.3,0-0.6-0.1-0.7-0.3c-0.2-0.2-0.3-0.4-0.3-0.7v-3.8c0-0.6-0.1-1-0.3-1.3s-0.6-0.4-1.1-0.4c-0.6,0-1,0.2-1.4,0.5
		c-0.3,0.4-0.5,0.8-0.5,1.5v3.6c0,0.3-0.1,0.5-0.3,0.7c-0.2,0.2-0.4,0.3-0.7,0.3c-0.3,0-0.6-0.1-0.7-0.3c-0.2-0.2-0.3-0.4-0.3-0.7
		v-6.2c0-0.3,0.1-0.5,0.3-0.7c0.2-0.2,0.4-0.3,0.7-0.3c0.3,0,0.5,0.1,0.7,0.2c0.2,0.2,0.3,0.4,0.3,0.6v0.4c0.3-0.4,0.6-0.8,1.1-1
		c0.4-0.2,1-0.4,1.5-0.4C82.4,21,83.1,21.3,83.5,21.8z"/>
	<path class="st6" d="M88.3,28.6c-0.6-0.3-1-0.8-1.4-1.4c-0.3-0.6-0.5-1.3-0.5-2.1c0-0.8,0.2-1.5,0.5-2.2c0.3-0.6,0.8-1.1,1.4-1.4
		c0.6-0.3,1.3-0.5,2.1-0.5c0.4,0,0.8,0.1,1.3,0.2c0.4,0.1,0.8,0.3,1.1,0.5c0.3,0.2,0.5,0.5,0.5,0.8c0,0.2-0.1,0.4-0.2,0.6
		c-0.1,0.1-0.3,0.2-0.4,0.2c-0.1,0-0.2,0-0.4-0.1c-0.1-0.1-0.3-0.1-0.4-0.2c-0.2-0.1-0.5-0.2-0.7-0.3c-0.2-0.1-0.5-0.1-0.7-0.1
		c-0.7,0-1.2,0.2-1.5,0.6c-0.4,0.4-0.5,1.1-0.5,1.9c0,0.8,0.2,1.4,0.5,1.8s0.9,0.6,1.5,0.6c0.3,0,0.5,0,0.7-0.1
		c0.2-0.1,0.4-0.2,0.7-0.3c0.2-0.1,0.3-0.2,0.4-0.2c0.1,0,0.2-0.1,0.4-0.1c0.2,0,0.3,0.1,0.4,0.2s0.2,0.3,0.2,0.6
		c0,0.2,0,0.3-0.1,0.5s-0.2,0.3-0.4,0.4c-0.3,0.2-0.7,0.4-1.2,0.5c-0.4,0.1-0.9,0.2-1.3,0.2C89.6,29.1,88.9,29,88.3,28.6z"/>
	<path class="st6" d="M96.8,28.6c-0.6-0.3-1.1-0.8-1.4-1.4c-0.3-0.6-0.5-1.3-0.5-2.2s0.2-1.5,0.5-2.2s0.8-1.1,1.4-1.4
		c0.6-0.3,1.3-0.5,2.1-0.5s1.5,0.2,2.1,0.5c0.6,0.3,1.1,0.8,1.4,1.4s0.5,1.3,0.5,2.2s-0.2,1.5-0.5,2.2c-0.3,0.6-0.8,1.1-1.4,1.4
		c-0.6,0.3-1.3,0.5-2.1,0.5S97.4,29,96.8,28.6z M100.4,26.9c0.3-0.4,0.5-1.1,0.5-1.9c0-0.8-0.2-1.4-0.5-1.9s-0.8-0.6-1.5-0.6
		s-1.1,0.2-1.5,0.6c-0.3,0.4-0.5,1.1-0.5,1.9c0,0.8,0.2,1.5,0.5,1.9c0.3,0.4,0.8,0.6,1.5,0.6C99.5,27.6,100,27.4,100.4,26.9z"/>
	<path class="st6" d="M105.5,28.8c-0.2-0.2-0.3-0.4-0.3-0.7v-9.6c0-0.3,0.1-0.5,0.3-0.7c0.2-0.2,0.4-0.2,0.7-0.2
		c0.3,0,0.5,0.1,0.7,0.2s0.3,0.4,0.3,0.7v9.6c0,0.3-0.1,0.5-0.3,0.7c-0.2,0.2-0.4,0.2-0.7,0.2C105.9,29.1,105.6,29,105.5,28.8z"/>
	<path class="st6" d="M111.3,28.6c-0.6-0.3-1.1-0.8-1.4-1.4c-0.3-0.6-0.5-1.3-0.5-2.2s0.2-1.5,0.5-2.2s0.8-1.1,1.4-1.4
		c0.6-0.3,1.3-0.5,2.1-0.5c0.8,0,1.5,0.2,2.1,0.5c0.6,0.3,1.1,0.8,1.4,1.4c0.3,0.6,0.5,1.3,0.5,2.2s-0.2,1.5-0.5,2.2
		c-0.3,0.6-0.8,1.1-1.4,1.4c-0.6,0.3-1.3,0.5-2.1,0.5C112.6,29.1,111.9,29,111.3,28.6z M114.9,26.9c0.3-0.4,0.5-1.1,0.5-1.9
		c0-0.8-0.2-1.4-0.5-1.9c-0.3-0.4-0.8-0.6-1.5-0.6s-1.1,0.2-1.5,0.6c-0.3,0.4-0.5,1.1-0.5,1.9c0,0.8,0.2,1.5,0.5,1.9
		c0.3,0.4,0.8,0.6,1.5,0.6C114.1,27.6,114.6,27.4,114.9,26.9z"/>
	<path class="st6" d="M131,21.7c0.5,0.5,0.7,1.3,0.7,2.5v3.9c0,0.3-0.1,0.5-0.3,0.7c-0.2,0.2-0.4,0.2-0.7,0.2
		c-0.3,0-0.5-0.1-0.7-0.2c-0.2-0.2-0.3-0.4-0.3-0.7v-3.9c0-0.6-0.1-1-0.3-1.3c-0.2-0.3-0.5-0.4-1-0.4c-0.5,0-0.9,0.2-1.2,0.5
		c-0.3,0.4-0.5,0.8-0.5,1.5v3.6c0,0.3-0.1,0.5-0.3,0.7c-0.2,0.2-0.4,0.2-0.7,0.2c-0.3,0-0.5-0.1-0.7-0.2c-0.2-0.2-0.3-0.4-0.3-0.7
		v-3.9c0-0.6-0.1-1-0.3-1.3c-0.2-0.3-0.5-0.4-1-0.4c-0.5,0-0.9,0.2-1.2,0.5c-0.3,0.4-0.5,0.8-0.5,1.5v3.6c0,0.3-0.1,0.5-0.3,0.7
		c-0.2,0.2-0.4,0.2-0.7,0.2s-0.5-0.1-0.7-0.2c-0.2-0.2-0.3-0.4-0.3-0.7v-6.2c0-0.3,0.1-0.5,0.3-0.7s0.4-0.2,0.7-0.2
		c0.3,0,0.5,0.1,0.7,0.2c0.2,0.2,0.3,0.4,0.3,0.7v0.4c0.2-0.4,0.6-0.8,1-1c0.4-0.2,0.9-0.3,1.4-0.3c1.2,0,2,0.5,2.4,1.5
		c0.2-0.4,0.6-0.8,1-1.1c0.5-0.3,1-0.4,1.6-0.4C129.9,21,130.5,21.2,131,21.7z"/>
	<path class="st6" d="M140.6,21.5c0.5,0.3,0.9,0.8,1.2,1.4c0.3,0.6,0.4,1.3,0.4,2.1c0,0.8-0.1,1.5-0.4,2.2c-0.3,0.6-0.7,1.1-1.2,1.4
		c-0.5,0.3-1.1,0.5-1.8,0.5c-0.6,0-1.1-0.1-1.5-0.4c-0.4-0.2-0.8-0.6-1-1v0.4c0,0.3-0.1,0.5-0.3,0.7s-0.4,0.3-0.7,0.3
		s-0.5-0.1-0.7-0.3c-0.2-0.2-0.3-0.4-0.3-0.7v-9.6c0-0.3,0.1-0.5,0.3-0.7c0.2-0.2,0.4-0.3,0.7-0.3s0.5,0.1,0.7,0.2s0.3,0.4,0.3,0.7
		v3.8c0.2-0.4,0.6-0.8,1-1s0.9-0.3,1.5-0.3C139.5,21,140.1,21.1,140.6,21.5z M139.8,26.9c0.4-0.4,0.5-1.1,0.5-1.9
		c0-0.8-0.2-1.4-0.5-1.8c-0.3-0.4-0.8-0.6-1.5-0.6c-0.6,0-1.1,0.2-1.5,0.6c-0.3,0.4-0.5,1.1-0.5,1.9s0.2,1.4,0.5,1.9
		c0.3,0.4,0.8,0.7,1.5,0.7C138.9,27.6,139.4,27.4,139.8,26.9z"/>
	<path class="st6" d="M144.7,19.3c-0.2-0.2-0.3-0.5-0.3-0.8c0-0.3,0.1-0.6,0.3-0.8s0.5-0.3,0.9-0.3c0.4,0,0.6,0.1,0.9,0.3
		c0.2,0.2,0.3,0.4,0.3,0.8c0,0.3-0.1,0.6-0.3,0.8c-0.2,0.2-0.5,0.3-0.9,0.3S144.9,19.5,144.7,19.3z M144.9,28.8
		c-0.2-0.2-0.3-0.4-0.3-0.7V22c0-0.3,0.1-0.5,0.3-0.7c0.2-0.2,0.4-0.2,0.7-0.2s0.5,0.1,0.7,0.2s0.3,0.4,0.3,0.7v6.2
		c0,0.3-0.1,0.5-0.3,0.7c-0.2,0.2-0.4,0.2-0.7,0.2S145,29,144.9,28.8z"/>
	<path class="st6" d="M155.1,21.8c0.5,0.5,0.8,1.4,0.8,2.5v3.9c0,0.3-0.1,0.5-0.3,0.7c-0.2,0.2-0.4,0.2-0.7,0.2
		c-0.3,0-0.5-0.1-0.7-0.3c-0.2-0.2-0.3-0.4-0.3-0.7v-0.4c-0.2,0.4-0.5,0.7-0.9,1c-0.4,0.2-0.8,0.4-1.4,0.4c-0.5,0-1-0.1-1.4-0.3
		c-0.4-0.2-0.8-0.5-1-0.9c-0.2-0.4-0.4-0.8-0.4-1.2c0-0.6,0.1-1,0.4-1.4c0.3-0.3,0.8-0.6,1.4-0.7c0.7-0.1,1.6-0.2,2.7-0.2h0.4V24
		c0-0.5-0.1-0.9-0.3-1.1c-0.2-0.2-0.6-0.4-1.1-0.4c-0.3,0-0.6,0-0.9,0.1c-0.3,0.1-0.7,0.2-1.1,0.4c-0.3,0.1-0.5,0.2-0.6,0.2
		c-0.2,0-0.3-0.1-0.5-0.2c-0.1-0.1-0.2-0.3-0.2-0.5c0-0.2,0-0.3,0.1-0.5c0.1-0.1,0.2-0.3,0.5-0.4c0.4-0.2,0.8-0.4,1.3-0.5
		c0.5-0.1,1-0.2,1.5-0.2C153.8,21,154.6,21.3,155.1,21.8z M153.5,27.2c0.3-0.4,0.5-0.8,0.5-1.4v-0.3h-0.3c-0.7,0-1.3,0-1.7,0.1
		c-0.4,0.1-0.7,0.2-0.8,0.3c-0.2,0.2-0.3,0.4-0.3,0.7c0,0.3,0.1,0.6,0.4,0.8s0.5,0.3,0.9,0.3C152.7,27.7,153.2,27.5,153.5,27.2z"/>
</g>
</svg>
